<?xml version="1.0" encoding="UTF-8" standalone="no"?>
<svg
   xmlns:dc="http://purl.org/dc/elements/1.1/"
   xmlns:cc="http://creativecommons.org/ns#"
   xmlns:rdf="http://www.w3.org/1999/02/22-rdf-syntax-ns#"
   xmlns:svg="http://www.w3.org/2000/svg"
   xmlns="http://www.w3.org/2000/svg"
   xmlns:xlink="http://www.w3.org/1999/xlink"
   xmlns:sodipodi="http://sodipodi.sourceforge.net/DTD/sodipodi-0.dtd"
   xmlns:inkscape="http://www.inkscape.org/namespaces/inkscape"
   width="560"
   height="420"
   viewBox="0 0 560 419.99999"
   id="svg2"
   version="1.1"
   inkscape:version="0.91 r"
   sodipodi:docname="dblogo.svg"
   inkscape:export-filename="/media/sf_D_DRIVE/privat/db_engineering/dblogoicon.png"
   inkscape:export-xdpi="5.1399999"
   inkscape:export-ydpi="5.1399999">
  <metadata
     id="metadata239">
    <rdf:RDF>
      <cc:Work
         rdf:about="">
        <dc:format>image/svg+xml</dc:format>
        <dc:type
           rdf:resource="http://purl.org/dc/dcmitype/StillImage" />
        <dc:title>Gnuplot</dc:title>
      </cc:Work>
    </rdf:RDF>
  </metadata>
  <defs
     id="defs237">
    <linearGradient
       inkscape:collect="always"
       id="linearGradient4385">
      <stop
         style="stop-color:#00b400;stop-opacity:1"
         offset="0"
         id="stop4387" />
      <stop
         id="stop4393"
         offset="0.36250538"
         style="stop-color:#b40000;stop-opacity:1" />
      <stop
         style="stop-color:#b40000;stop-opacity:1"
         offset="0.64921802"
         id="stop4395" />
      <stop
         style="stop-color:#00b400;stop-opacity:1"
         offset="1"
         id="stop4389" />
    </linearGradient>
    <linearGradient
       inkscape:collect="always"
       id="linearGradient4375">
      <stop
         style="stop-color:#004455;stop-opacity:1"
         offset="0"
         id="stop4377" />
      <stop
         id="stop4383"
         offset="0.50139284"
         style="stop-color:#afdde9;stop-opacity:1" />
      <stop
         style="stop-color:#006680;stop-opacity:1"
         offset="1"
         id="stop4379" />
    </linearGradient>
    <linearGradient
       inkscape:collect="always"
       xlink:href="#linearGradient4375"
       id="linearGradient4381"
       x1="45.133999"
       y1="201.05"
       x2="485.43054"
       y2="201.05"
       gradientUnits="userSpaceOnUse" />
    <linearGradient
       inkscape:collect="always"
       xlink:href="#linearGradient4385"
       id="linearGradient4391"
       x1="45.599998"
       y1="292.54999"
       x2="484.70001"
       y2="292.54999"
       gradientUnits="userSpaceOnUse" />
    <linearGradient
       inkscape:collect="always"
       xlink:href="#linearGradient4375"
       id="linearGradient4416"
       gradientUnits="userSpaceOnUse"
       x1="45.133999"
       y1="201.05"
       x2="485.43054"
       y2="201.05" />
    <linearGradient
       inkscape:collect="always"
       xlink:href="#linearGradient4375"
       id="linearGradient4418"
       gradientUnits="userSpaceOnUse"
       x1="45.133999"
       y1="201.05"
       x2="485.43054"
       y2="201.05" />
    <linearGradient
       inkscape:collect="always"
       xlink:href="#linearGradient4375"
       id="linearGradient4420"
       gradientUnits="userSpaceOnUse"
       x1="45.133999"
       y1="201.05"
       x2="485.43054"
       y2="201.05" />
    <linearGradient
       inkscape:collect="always"
       xlink:href="#linearGradient4375"
       id="linearGradient4422"
       gradientUnits="userSpaceOnUse"
       x1="45.133999"
       y1="201.05"
       x2="485.43054"
       y2="201.05" />
  </defs>
  <sodipodi:namedview
     pagecolor="#ffffff"
     bordercolor="#666666"
     borderopacity="1"
     objecttolerance="10"
     gridtolerance="10"
     guidetolerance="10"
     inkscape:pageopacity="0"
     inkscape:pageshadow="2"
     inkscape:window-width="1920"
     inkscape:window-height="1028"
     id="namedview235"
     showgrid="false"
     inkscape:zoom="1.9142857"
     inkscape:cx="223.66577"
     inkscape:cy="210.06412"
     inkscape:window-x="0"
     inkscape:window-y="0"
     inkscape:window-maximized="1"
     inkscape:current-layer="gnuplot_canvas"
     fit-margin-top="0"
     fit-margin-left="0"
     fit-margin-right="0"
     fit-margin-bottom="0" />
  <title
     id="title4">Gnuplot</title>
  <desc
     id="desc6">Produced by GNUPLOT 5.2 patchlevel 4 </desc>
  <g
     id="gnuplot_canvas">
    <rect
       x="0"
       y="0"
       width="560"
       height="420"
       id="rect9"
       style="fill:none" />
    <defs
       id="defs11">
      <circle
         id="gpDot"
         r="0.5"
         cx="0"
         cy="0"
         style="stroke:currentColor;stroke-width:0.5" />
      <path
         id="gpPt0"
         d="M -1,0 1,0 M 0,-1 0,1"
         inkscape:connector-curvature="0"
         style="stroke:currentColor;stroke-width:0.222" />
      <path
         id="gpPt1"
         d="M -1,-1 1,1 M 1,-1 -1,1"
         inkscape:connector-curvature="0"
         style="stroke:currentColor;stroke-width:0.222" />
      <path
         id="gpPt2"
         d="M -1,0 1,0 M 0,-1 0,1 m -1,-2 2,2 m -2,0 2,-2"
         inkscape:connector-curvature="0"
         style="stroke:currentColor;stroke-width:0.222" />
      <rect
         id="gpPt3"
         x="-1"
         y="-1"
         width="2"
         height="2"
         style="stroke:currentColor;stroke-width:0.222" />
      <rect
         id="gpPt4"
         x="-1"
         y="-1"
         width="2"
         height="2"
         style="fill:currentColor;stroke:currentColor;stroke-width:0.222" />
      <circle
         id="gpPt5"
         cx="0"
         cy="0"
         r="1"
         style="stroke:currentColor;stroke-width:0.222" />
      <use
         xlink:href="#gpPt5"
         id="gpPt6"
         style="fill:currentColor;stroke:none"
         x="0"
         y="0"
         width="100%"
         height="100%" />
      <path
         id="gpPt7"
         d="m 0,-1.33 -1.33,2 2.66,0 z"
         inkscape:connector-curvature="0"
         style="stroke:currentColor;stroke-width:0.222" />
      <use
         xlink:href="#gpPt7"
         id="gpPt8"
         style="fill:currentColor;stroke:none"
         x="0"
         y="0"
         width="100%"
         height="100%" />
      <use
         xlink:href="#gpPt7"
         id="gpPt9"
         transform="scale(-1,-1)"
         style="stroke:currentColor"
         x="0"
         y="0"
         width="100%"
         height="100%" />
      <use
         xlink:href="#gpPt9"
         id="gpPt10"
         style="fill:currentColor;stroke:none"
         x="0"
         y="0"
         width="100%"
         height="100%" />
      <use
         xlink:href="#gpPt3"
         id="gpPt11"
         transform="matrix(0.70710678,0.70710678,-0.70710678,0.70710678,0,0)"
         style="stroke:currentColor"
         x="0"
         y="0"
         width="100%"
         height="100%" />
      <use
         xlink:href="#gpPt11"
         id="gpPt12"
         style="fill:currentColor;stroke:none"
         x="0"
         y="0"
         width="100%"
         height="100%" />
      <path
         id="gpPt13"
         d="M 0,1.33 1.265,0.411 0.782,-1.067 -0.782,-1.076 -1.265,0.411 Z"
         inkscape:connector-curvature="0"
         style="stroke:currentColor;stroke-width:0.222" />
      <use
         xlink:href="#gpPt13"
         id="gpPt14"
         style="fill:currentColor;stroke:none"
         x="0"
         y="0"
         width="100%"
         height="100%" />
      <filter
         id="textbox"
         filterUnits="objectBoundingBox"
         x="0"
         y="0"
         height="1"
         width="1">
        <feFlood
           flood-color="white"
           flood-opacity="1"
           result="bgnd"
           id="feFlood30" />
        <feComposite
           in="SourceGraphic"
           in2="bgnd"
           operator="atop"
           id="feComposite32" />
      </filter>
      <filter
         id="greybox"
         filterUnits="objectBoundingBox"
         x="0"
         y="0"
         height="1"
         width="1">
        <feFlood
           flood-color="lightgrey"
           flood-opacity="1"
           result="grey"
           id="feFlood35" />
        <feComposite
           in="SourceGraphic"
           in2="grey"
           operator="atop"
           id="feComposite37" />
      </filter>
    </defs>
    <g
       id="g39"
       style="color:#ffffff;fill:none;stroke:currentColor;stroke-width:1;stroke-linecap:butt;stroke-linejoin:miter" />
    <g
       id="g41"
       style="color:#000000;fill:none;stroke:currentColor;stroke-width:1;stroke-linecap:butt;stroke-linejoin:miter">
      <g
         id="g43"
         style="stroke:none;shape-rendering:crispEdges">
        <polygon
           points="534.9,18.2 45.6,18.2 45.6,384 534.9,384 "
           id="polygon45"
           style="fill:#ffffff" />
      </g>
    </g>
    <g
       id="g177"
       style="color:#000000;fill:none;stroke:currentColor;stroke-width:1;stroke-linecap:butt;stroke-linejoin:miter" />
    <g
       id="g179"
       style="color:#000000;fill:none;stroke:currentColor;stroke-width:1;stroke-linecap:butt;stroke-linejoin:miter" />
    <g
       id="gnuplot_plot_1a"
       style="fill:url(#linearGradient4381);fill-opacity:1"
       inkscape:export-xdpi="6.54"
       inkscape:export-ydpi="6.54">
      <title
         id="title182"
         style="fill:url(#linearGradient4381);fill-opacity:1">gnuplot_plot_1a</title>
      <g
         id="g184"
         style="color:#000000;fill:url(#linearGradient4422);fill-opacity:1;stroke:currentColor;stroke-width:1;stroke-linecap:butt;stroke-linejoin:miter">
        <g
           id="g186"
           style="fill:url(#linearGradient4418);fill-opacity:1;stroke:none;shape-rendering:crispEdges">
          <polygon
             points="49.8,373 50.5,371.2 51.2,369.4 51.9,367.5 52.6,365.7 53.3,363.9 54,362.1 54.7,360.2 55.4,358.4 56.1,356.6 56.8,354.8 57.5,352.9 58.2,351.1 58.9,349.3 59.6,347.5 60.3,345.7 61,343.8 61.7,342 62.4,340.2 63.1,338.4 63.8,336.6 64.5,334.8 65.2,332.9 65.9,331.1 66.6,329.3 67.3,327.5 68,325.7 68.7,323.9 69.4,322.1 70.1,320.3 70.8,318.5 71.5,316.7 72.2,314.9 72.9,313.1 73.6,311.3 74.3,309.5 75,307.7 75.7,305.9 76.4,304.1 77.1,302.4 77.8,300.6 78.5,298.8 79.2,297 79.9,295.2 80.6,293.5 81.3,291.7 82,289.9 82.7,288.2 83.4,286.4 84.1,284.6 84.8,282.9 85.5,281.1 86.2,279.4 86.8,277.6 87.5,275.9 88.2,274.1 88.9,272.4 89.6,270.6 90.3,268.9 91,267.2 91.7,265.4 92.4,263.7 93.1,262 93.8,260.3 94.5,258.5 95.2,256.8 95.9,255.1 96.6,253.4 97.3,251.7 98,250 98.7,248.3 99.4,246.6 100.1,244.9 100.8,243.2 101.5,241.5 102.2,239.8 102.9,238.1 103.6,236.5 104.3,234.8 105,233.1 105.7,231.5 106.4,229.8 107.1,228.1 107.8,226.5 108.5,224.8 109.2,223.2 109.9,221.6 110.6,219.9 111.3,218.3 112,216.7 112.7,215 113.4,213.4 114.1,211.8 114.8,210.2 115.5,208.6 116.2,207 116.9,205.4 117.6,203.8 118.3,202.2 119,200.6 119.7,199 120.4,197.4 121.1,195.9 121.8,194.3 122.5,192.7 123.2,191.2 123.9,189.6 124.6,188.1 125.3,186.5 126,185 126.7,183.5 127.4,182 128.1,180.4 128.8,178.9 129.5,177.4 130.2,175.9 130.9,174.4 131.6,172.9 132.3,171.4 133,169.9 133.7,168.4 134.4,167 135.1,165.5 135.8,164 136.5,162.6 137.2,161.1 137.9,159.7 138.6,158.2 139.3,156.8 140,155.4 140.7,153.9 141.4,152.5 142.1,151.1 142.8,149.7 143.5,148.3 144.2,146.9 144.9,145.5 145.6,144.1 146.3,142.7 147,141.4 147.7,140 148.4,138.6 149.1,137.3 149.8,135.9 150.5,134.6 151.2,133.3 151.9,131.9 152.6,130.6 153.3,129.3 154,128 154.7,126.7 155.4,125.4 156.1,124.1 156.8,122.8 157.5,121.5 158.2,120.2 158.9,119 159.6,117.7 160.3,116.5 161,115.2 161.7,114 162.4,112.8 163.1,111.5 163.8,110.3 164.5,109.1 165.2,107.9 165.9,106.7 166.6,105.5 167.3,104.3 168,103.2 168.6,102 169.3,100.8 170,99.7 170.7,98.5 171.4,97.4 172.1,96.2 172.8,95.1 173.5,94 174.2,92.9 174.9,91.8 175.6,90.7 176.3,89.6 177,88.5 177.7,87.4 178.4,86.4 179.1,85.3 179.8,84.3 180.5,83.2 181.2,82.2 181.9,81.1 182.6,80.1 183.3,79.1 184,78.1 184.7,77.1 185.4,76.1 186.1,75.1 186.8,74.1 187.5,73.2 188.2,72.2 188.9,71.3 189.6,70.3 190.3,69.4 191,68.4 191.7,67.5 192.4,66.6 193.1,65.7 193.8,64.8 194.5,63.9 195.2,63 195.9,62.2 196.6,61.3 197.3,60.4 198,59.6 198.7,58.7 199.4,57.9 200.1,57.1 200.8,56.3 201.5,55.5 202.2,54.7 202.9,53.9 203.6,53.1 204.3,52.3 205,51.5 205.7,50.8 206.4,50 207.1,49.3 207.8,48.5 208.5,47.8 209.2,47.1 209.9,46.4 210.6,45.7 211.3,45 212,44.3 212.7,43.6 213.4,43 214.1,42.3 214.8,41.7 215.5,41 216.2,40.4 216.9,39.8 217.6,39.1 218.3,38.5 219,37.9 219.7,37.3 220.4,36.8 221.1,36.2 221.8,35.6 222.5,35.1 223.2,34.5 223.9,34 224.6,33.5 225.3,32.9 226,32.4 226.7,31.9 227.4,31.4 228.1,30.9 228.8,30.5 229.5,30 230.2,29.5 230.9,29.1 231.6,28.7 232.3,28.2 233,27.8 233.7,27.4 234.4,27 235.1,26.6 235.8,26.2 236.5,25.8 237.2,25.5 237.9,25.1 238.6,24.7 239.3,24.4 240,24.1 240.7,23.7 241.4,23.4 242.1,23.1 242.8,22.8 243.5,22.5 244.2,22.3 244.9,22 245.6,21.7 246.3,21.5 247,21.2 247.7,21 248.4,20.8 249.1,20.6 249.7,20.3 250.4,20.1 251.1,20 251.8,19.8 252.5,19.6 253.2,19.4 253.9,19.3 254.6,19.2 255.3,19 256,18.9 256.7,18.8 257.4,18.7 258.1,18.6 258.8,18.5 259.5,18.4 260.2,18.3 260.9,18.3 261.6,18.2 262.3,18.2 263,18.1 263.7,18.1 264.4,18.1 265.1,18.1 265.8,18.1 266.5,18.1 267.2,18.1 267.9,18.2 268.6,18.2 269.3,18.3 270,18.3 270.7,18.4 271.4,18.5 272.1,18.5 272.8,18.6 273.5,18.7 274.2,18.9 274.9,19 275.6,19.1 276.3,19.2 277,19.4 277.7,19.6 278.4,19.7 279.1,19.9 279.8,20.1 280.5,20.3 281.2,20.5 281.9,20.7 282.6,20.9 283.3,21.1 284,21.4 284.7,21.6 285.4,21.9 286.1,22.2 286.8,22.4 287.5,22.7 288.2,23 288.9,23.3 289.6,23.6 290.3,24 291,24.3 291.7,24.6 292.4,25 293.1,25.3 293.8,25.7 294.5,26.1 295.2,26.5 295.9,26.9 296.6,27.3 297.3,27.7 298,28.1 298.7,28.5 299.4,29 300.1,29.4 300.8,29.9 301.5,30.3 302.2,30.8 302.9,31.3 303.6,31.8 304.3,32.3 305,32.8 305.7,33.3 306.4,33.8 307.1,34.4 307.8,34.9 308.5,35.5 309.2,36 309.9,36.6 310.6,37.2 311.3,37.7 312,38.3 312.7,38.9 313.4,39.6 314.1,40.2 314.8,40.8 315.5,41.5 316.2,42.1 316.9,42.8 317.6,43.4 318.3,44.1 319,44.8 319.7,45.5 320.4,46.2 321.1,46.9 321.8,47.6 322.5,48.3 323.2,49 323.9,49.8 324.6,50.5 325.3,51.3 326,52.1 326.7,52.8 327.4,53.6 328.1,54.4 328.8,55.2 329.5,56 330.2,56.8 330.9,57.6 331.5,58.5 332.2,59.3 332.9,60.2 333.6,61 334.3,61.9 335,62.8 335.7,63.6 336.4,64.5 337.1,65.4 337.8,66.3 338.5,67.2 339.2,68.2 339.9,69.1 340.6,70 341.3,71 342,71.9 342.7,72.9 343.4,73.8 344.1,74.8 344.8,75.8 345.5,76.8 346.2,77.8 346.9,78.8 347.6,79.8 348.3,80.8 349,81.8 349.7,82.9 350.4,83.9 351.1,85 351.8,86 352.5,87.1 353.2,88.2 353.9,89.3 354.6,90.3 355.3,91.4 356,92.5 356.7,93.6 357.4,94.8 358.1,95.9 358.8,97 359.5,98.2 360.2,99.3 360.9,100.5 361.6,101.6 362.3,102.8 363,104 363.7,105.1 364.4,106.3 365.1,107.5 365.8,108.7 366.5,109.9 367.2,111.1 367.9,112.4 368.6,113.6 369.3,114.8 370,116.1 370.7,117.3 371.4,118.6 372.1,119.8 372.8,121.1 373.5,122.4 374.2,123.7 374.9,125 375.6,126.3 376.3,127.6 377,128.9 377.7,130.2 378.4,131.5 379.1,132.8 379.8,134.2 380.5,135.5 381.2,136.8 381.9,138.2 382.6,139.6 383.3,140.9 384,142.3 384.7,143.7 385.4,145.1 386.1,146.4 386.8,147.8 387.5,149.2 388.2,150.6 388.9,152.1 389.6,153.5 390.3,154.9 391,156.3 391.7,157.8 392.4,159.2 393.1,160.6 393.8,162.1 394.5,163.6 395.2,165 395.9,166.5 396.6,168 397.3,169.4 398,170.9 398.7,172.4 399.4,173.9 400.1,175.4 400.8,176.9 401.5,178.4 402.2,179.9 402.9,181.5 403.6,183 404.3,184.5 405,186.1 405.7,187.6 406.4,189.1 407.1,190.7 407.8,192.3 408.5,193.8 409.2,195.4 409.9,196.9 410.6,198.5 411.3,200.1 412,201.7 412.7,203.3 413.3,204.9 414,206.5 414.7,208.1 415.4,209.7 416.1,211.3 416.8,212.9 417.5,214.5 418.2,216.1 418.9,217.8 419.6,219.4 420.3,221 421,222.7 421.7,224.3 422.4,226 423.1,227.6 423.8,229.3 424.5,230.9 425.2,232.6 425.9,234.3 426.6,235.9 427.3,237.6 428,239.3 428.7,241 429.4,242.7 430.1,244.4 430.8,246 431.5,247.7 432.2,249.4 432.9,251.1 433.6,252.8 434.3,254.6 435,256.3 435.7,258 436.4,259.7 437.1,261.4 437.8,263.2 438.5,264.9 439.2,266.6 439.9,268.3 440.6,270.1 441.3,271.8 442,273.6 442.7,275.3 443.4,277.1 444.1,278.8 444.8,280.6 445.5,282.3 446.2,284.1 446.9,285.8 447.6,287.6 448.3,289.4 449,291.1 449.7,292.9 450.4,294.7 451.1,296.5 451.8,298.2 452.5,300 453.2,301.8 453.9,303.6 454.6,305.4 455.3,307.2 456,308.9 456.7,310.7 457.4,312.5 458.1,314.3 458.8,316.1 459.5,317.9 460.2,319.7 460.9,321.5 461.6,323.3 462.3,325.1 463,326.9 463.7,328.7 464.4,330.6 465.1,332.4 465.8,334.2 466.5,336 467.2,337.8 467.9,339.6 468.6,341.4 469.3,343.3 470,345.1 470.7,346.9 471.4,348.7 472.1,350.5 472.8,352.4 473.5,354.2 474.2,356 474.9,357.8 475.6,359.7 476.3,361.5 477,363.3 477.7,365.1 478.4,367 479.1,368.8 479.8,370.6 480.5,372.4 481.2,374.3 481.9,376.1 482.6,377.9 483.3,379.8 484,381.6 484.7,383.4 45.6,384 45.6,384 46.3,382.2 47,380.3 47.7,378.5 48.4,376.7 49.1,374.9 "
             id="polygon188"
             style="fill:url(#linearGradient4416);fill-opacity:1" />
        </g>
        <path
           d="m 45.6,384 0.7,-1.8 0.7,-1.9 0.7,-1.8 0.7,-1.8 0.7,-1.8 0.7,-1.9 0.7,-1.8 0.7,-1.8 0.7,-1.9 0.7,-1.8 0.7,-1.8 0.7,-1.8 0.7,-1.9 0.7,-1.8 0.7,-1.8 0.7,-1.8 0.7,-1.9 0.7,-1.8 0.7,-1.8 0.7,-1.8 0.7,-1.8 0.7,-1.9 0.7,-1.8 0.7,-1.8 0.7,-1.8 0.7,-1.8 0.7,-1.8 0.7,-1.9 0.7,-1.8 0.7,-1.8 0.7,-1.8 0.7,-1.8 0.7,-1.8 0.7,-1.8 0.7,-1.8 0.7,-1.8 0.7,-1.8 0.7,-1.8 0.7,-1.8 0.7,-1.8 0.7,-1.8 0.7,-1.8 0.7,-1.8 0.7,-1.8 0.7,-1.7 0.7,-1.8 0.7,-1.8 0.7,-1.8 0.7,-1.8 0.7,-1.7 0.7,-1.8 0.7,-1.8 0.7,-1.7 0.7,-1.8 0.7,-1.8 0.7,-1.7 0.7,-1.8 0.7,-1.7 0.6,-1.8 0.7,-1.7 0.7,-1.8 0.7,-1.7 0.7,-1.8 0.7,-1.7 0.7,-1.7 0.7,-1.8 0.7,-1.7 0.7,-1.7 0.7,-1.7 0.7,-1.8 0.7,-1.7 0.7,-1.7 0.7,-1.7 0.7,-1.7 0.7,-1.7 0.7,-1.7 0.7,-1.7 0.7,-1.7 0.7,-1.7 0.7,-1.7 0.7,-1.7 0.7,-1.7 0.7,-1.6 0.7,-1.7 0.7,-1.7 0.7,-1.6 0.7,-1.7 0.7,-1.7 0.7,-1.6 0.7,-1.7 0.7,-1.6 0.7,-1.6 0.7,-1.7 0.7,-1.6 0.7,-1.6 0.7,-1.7 0.7,-1.6 0.7,-1.6 0.7,-1.6 0.7,-1.6 0.7,-1.6 0.7,-1.6 0.7,-1.6 0.7,-1.6 0.7,-1.6 0.7,-1.6 0.7,-1.6 0.7,-1.5 0.7,-1.6 0.7,-1.6 0.7,-1.5 0.7,-1.6 0.7,-1.5 0.7,-1.6 0.7,-1.5 0.7,-1.5 0.7,-1.5 0.7,-1.6 0.7,-1.5 0.7,-1.5 0.7,-1.5 0.7,-1.5 0.7,-1.5 0.7,-1.5 0.7,-1.5 0.7,-1.5 0.7,-1.4 0.7,-1.5 0.7,-1.5 0.7,-1.4 0.7,-1.5 0.7,-1.4 0.7,-1.5 0.7,-1.4 0.7,-1.4 0.7,-1.5 0.7,-1.4 0.7,-1.4 0.7,-1.4 0.7,-1.4 0.7,-1.4 0.7,-1.4 0.7,-1.4 0.7,-1.4 0.7,-1.3 0.7,-1.4 0.7,-1.4 0.7,-1.3 0.7,-1.4 0.7,-1.3 0.7,-1.3 0.7,-1.4 0.7,-1.3 0.7,-1.3 0.7,-1.3 0.7,-1.3 0.7,-1.3 0.7,-1.3 0.7,-1.3 0.7,-1.3 0.7,-1.3 0.7,-1.2 0.7,-1.3 0.7,-1.2 0.7,-1.3 0.7,-1.2 0.7,-1.2 0.7,-1.3 0.7,-1.2 0.7,-1.2 0.7,-1.2 0.7,-1.2 0.7,-1.2 0.7,-1.2 0.7,-1.1 0.6,-1.2 0.7,-1.2 0.7,-1.1 0.7,-1.2 0.7,-1.1 0.7,-1.2 0.7,-1.1 0.7,-1.1 0.7,-1.1 0.7,-1.1 0.7,-1.1 0.7,-1.1 0.7,-1.1 0.7,-1.1 0.7,-1 0.7,-1.1 0.7,-1 0.7,-1.1 0.7,-1 0.7,-1.1 0.7,-1 0.7,-1 0.7,-1 0.7,-1 0.7,-1 0.7,-1 0.7,-1 0.7,-0.9 0.7,-1 0.7,-0.9 0.7,-1 0.7,-0.9 0.7,-1 0.7,-0.9 0.7,-0.9 0.7,-0.9 0.7,-0.9 0.7,-0.9 0.7,-0.9 0.7,-0.8 0.7,-0.9 0.7,-0.9 0.7,-0.8 0.7,-0.9 0.7,-0.8 0.7,-0.8 0.7,-0.8 0.7,-0.8 0.7,-0.8 0.7,-0.8 0.7,-0.8 0.7,-0.8 0.7,-0.8 0.7,-0.7 0.7,-0.8 0.7,-0.7 0.7,-0.8 0.7,-0.7 0.7,-0.7 0.7,-0.7 0.7,-0.7 0.7,-0.7 0.7,-0.7 0.7,-0.7 0.7,-0.6 0.7,-0.7 0.7,-0.6 0.7,-0.7 0.7,-0.6 0.7,-0.6 0.7,-0.7 0.7,-0.6 0.7,-0.6 0.7,-0.6 0.7,-0.5 0.7,-0.6 0.7,-0.6 0.7,-0.5 0.7,-0.6 0.7,-0.5 0.7,-0.5 0.7,-0.6 0.7,-0.5 0.7,-0.5 0.7,-0.5 0.7,-0.5 0.7,-0.4 0.7,-0.5 0.7,-0.5 0.7,-0.4 0.7,-0.4 0.7,-0.5 0.7,-0.4 0.7,-0.4 0.7,-0.4 0.7,-0.4 0.7,-0.4 0.7,-0.4 0.7,-0.3 0.7,-0.4 0.7,-0.4 0.7,-0.3 0.7,-0.3 0.7,-0.4 0.7,-0.3 0.7,-0.3 0.7,-0.3 0.7,-0.3 0.7,-0.2 0.7,-0.3 0.7,-0.3 0.7,-0.2 0.7,-0.3 0.7,-0.2 0.7,-0.2 0.7,-0.2 0.6,-0.3 0.7,-0.2 0.7,-0.1 0.7,-0.2 0.7,-0.2 0.7,-0.2 0.7,-0.1 0.7,-0.1 0.7,-0.2 0.7,-0.1 0.7,-0.1 0.7,-0.1 0.7,-0.1 0.7,-0.1 0.7,-0.1 0.7,-0.1 0.7,0 0.7,-0.1 0.7,0 0.7,-0.1 0.7,0 0.7,0 0.7,0 0.7,0 0.7,0 0.7,0 0.7,0.1 0.7,0 0.7,0.1 0.7,0 0.7,0.1 0.7,0.1 0.7,0 0.7,0.1 0.7,0.1 0.7,0.2 0.7,0.1 0.7,0.1 0.7,0.1 0.7,0.2 0.7,0.2 0.7,0.1 0.7,0.2 0.7,0.2 0.7,0.2 0.7,0.2 0.7,0.2 0.7,0.2 0.7,0.2 0.7,0.3 0.7,0.2 0.7,0.3 0.7,0.3 0.7,0.2 0.7,0.3 0.7,0.3 0.7,0.3 0.7,0.3 0.7,0.4 0.7,0.3 0.7,0.3 0.7,0.4 0.7,0.3 0.7,0.4 0.7,0.4 0.7,0.4 0.7,0.4 0.7,0.4 0.7,0.4 0.7,0.4 0.7,0.4 0.7,0.5 0.7,0.4 0.7,0.5 0.7,0.4 0.7,0.5 0.7,0.5 0.7,0.5 0.7,0.5 0.7,0.5 0.7,0.5 0.7,0.5 0.7,0.6 0.7,0.5 0.7,0.6 0.7,0.5 0.7,0.6 0.7,0.6 0.7,0.5 0.7,0.6 0.7,0.6 0.7,0.7 0.7,0.6 0.7,0.6 0.7,0.7 0.7,0.6 0.7,0.7 0.7,0.6 0.7,0.7 0.7,0.7 0.7,0.7 0.7,0.7 0.7,0.7 0.7,0.7 0.7,0.7 0.7,0.7 0.7,0.8 0.7,0.7 0.7,0.8 0.7,0.8 0.7,0.7 0.7,0.8 0.7,0.8 0.7,0.8 0.7,0.8 0.7,0.8 0.7,0.8 0.6,0.9 0.7,0.8 0.7,0.9 0.7,0.8 0.7,0.9 0.7,0.9 0.7,0.8 0.7,0.9 0.7,0.9 0.7,0.9 0.7,0.9 0.7,1 0.7,0.9 0.7,0.9 0.7,1 0.7,0.9 0.7,1 0.7,0.9 0.7,1 0.7,1 0.7,1 0.7,1 0.7,1 0.7,1 0.7,1 0.7,1 0.7,1.1 0.7,1 0.7,1.1 0.7,1 0.7,1.1 0.7,1.1 0.7,1.1 0.7,1 0.7,1.1 0.7,1.1 0.7,1.1 0.7,1.2 0.7,1.1 0.7,1.1 0.7,1.2 0.7,1.1 0.7,1.2 0.7,1.1 0.7,1.2 0.7,1.2 0.7,1.1 0.7,1.2 0.7,1.2 0.7,1.2 0.7,1.2 0.7,1.2 0.7,1.3 0.7,1.2 0.7,1.2 0.7,1.3 0.7,1.2 0.7,1.3 0.7,1.2 0.7,1.3 0.7,1.3 0.7,1.3 0.7,1.3 0.7,1.3 0.7,1.3 0.7,1.3 0.7,1.3 0.7,1.3 0.7,1.3 0.7,1.4 0.7,1.3 0.7,1.3 0.7,1.4 0.7,1.4 0.7,1.3 0.7,1.4 0.7,1.4 0.7,1.4 0.7,1.3 0.7,1.4 0.7,1.4 0.7,1.4 0.7,1.5 0.7,1.4 0.7,1.4 0.7,1.4 0.7,1.5 0.7,1.4 0.7,1.4 0.7,1.5 0.7,1.5 0.7,1.4 0.7,1.5 0.7,1.5 0.7,1.4 0.7,1.5 0.7,1.5 0.7,1.5 0.7,1.5 0.7,1.5 0.7,1.5 0.7,1.5 0.7,1.6 0.7,1.5 0.7,1.5 0.7,1.6 0.7,1.5 0.7,1.5 0.7,1.6 0.7,1.6 0.7,1.5 0.7,1.6 0.7,1.5 0.7,1.6 0.7,1.6 0.7,1.6 0.7,1.6 0.6,1.6 0.7,1.6 0.7,1.6 0.7,1.6 0.7,1.6 0.7,1.6 0.7,1.6 0.7,1.6 0.7,1.7 0.7,1.6 0.7,1.6 0.7,1.7 0.7,1.6 0.7,1.7 0.7,1.6 0.7,1.7 0.7,1.6 0.7,1.7 0.7,1.7 0.7,1.6 0.7,1.7 0.7,1.7 0.7,1.7 0.7,1.7 0.7,1.7 0.7,1.6 0.7,1.7 0.7,1.7 0.7,1.7 0.7,1.7 0.7,1.8 0.7,1.7 0.7,1.7 0.7,1.7 0.7,1.7 0.7,1.8 0.7,1.7 0.7,1.7 0.7,1.7 0.7,1.8 0.7,1.7 0.7,1.8 0.7,1.7 0.7,1.8 0.7,1.7 0.7,1.8 0.7,1.7 0.7,1.8 0.7,1.7 0.7,1.8 0.7,1.8 0.7,1.7 0.7,1.8 0.7,1.8 0.7,1.8 0.7,1.7 0.7,1.8 0.7,1.8 0.7,1.8 0.7,1.8 0.7,1.8 0.7,1.7 0.7,1.8 0.7,1.8 0.7,1.8 0.7,1.8 0.7,1.8 0.7,1.8 0.7,1.8 0.7,1.8 0.7,1.8 0.7,1.8 0.7,1.8 0.7,1.9 0.7,1.8 0.7,1.8 0.7,1.8 0.7,1.8 0.7,1.8 0.7,1.8 0.7,1.9 0.7,1.8 0.7,1.8 0.7,1.8 0.7,1.8 0.7,1.9 0.7,1.8 0.7,1.8 0.7,1.8 0.7,1.9 0.7,1.8 0.7,1.8 0.7,1.8 0.7,1.9 0.7,1.8 0.7,1.8 0.7,1.8 0.7,1.9 0.7,1.8 0.7,1.8 0.7,1.9 0.7,1.8 0.7,1.8 -439.1,0.6"
           id="path190"
           style="fill:url(#linearGradient4420);fill-opacity:1;stroke:#440154"
           inkscape:connector-curvature="0" />
      </g>
    </g>
    <g
       id="gnuplot_plot_2a">
      <title
         id="title193">gnuplot_plot_2a</title>
      <g
         id="g195"
         style="color:#ffffff;fill:none;stroke:#440154;stroke-width:0.5;stroke-linecap:butt;stroke-linejoin:miter" />
      <g
         id="g197"
         style="color:#000000;fill:none;stroke:currentColor;stroke-width:0.5;stroke-linecap:butt;stroke-linejoin:miter">
        <path
           d="m 45.6,384 0.7,-1.8 0.7,-1.9 0.7,-1.8 0.7,-1.8 0.7,-1.8 0.7,-1.9 0.7,-1.8 0.7,-1.8 0.7,-1.9 0.7,-1.8 0.7,-1.8 0.7,-1.8 0.7,-1.9 0.7,-1.8 0.7,-1.8 0.7,-1.8 0.7,-1.9 0.7,-1.8 0.7,-1.8 0.7,-1.8 0.7,-1.8 0.7,-1.9 0.7,-1.8 0.7,-1.8 0.7,-1.8 0.7,-1.8 0.7,-1.8 0.7,-1.9 0.7,-1.8 0.7,-1.8 0.7,-1.8 0.7,-1.8 0.7,-1.8 0.7,-1.8 0.7,-1.8 0.7,-1.8 0.7,-1.8 0.7,-1.8 0.7,-1.8 0.7,-1.8 0.7,-1.8 0.7,-1.8 0.7,-1.8 0.7,-1.8 0.7,-1.7 0.7,-1.8 0.7,-1.8 0.7,-1.8 0.7,-1.8 0.7,-1.7 0.7,-1.8 0.7,-1.8 0.7,-1.7 0.7,-1.8 0.7,-1.8 0.7,-1.7 0.7,-1.8 0.7,-1.7 0.6,-1.8 0.7,-1.7 0.7,-1.8 0.7,-1.7 0.7,-1.8 0.7,-1.7 0.7,-1.7 0.7,-1.8 0.7,-1.7 0.7,-1.7 0.7,-1.7 0.7,-1.8 0.7,-1.7 0.7,-1.7 0.7,-1.7 0.7,-1.7 0.7,-1.7 0.7,-1.7 0.7,-1.7 0.7,-1.7 0.7,-1.7 0.7,-1.7 0.7,-1.7 0.7,-1.7 0.7,-1.6 0.7,-1.7 0.7,-1.7 0.7,-1.6 0.7,-1.7 0.7,-1.7 0.7,-1.6 0.7,-1.7 0.7,-1.6 0.7,-1.6 0.7,-1.7 0.7,-1.6 0.7,-1.6 0.7,-1.7 0.7,-1.6 0.7,-1.6 0.7,-1.6 0.7,-1.6 0.7,-1.6 0.7,-1.6 0.7,-1.6 0.7,-1.6 0.7,-1.6 0.7,-1.6 0.7,-1.6 0.7,-1.5 0.7,-1.6 0.7,-1.6 0.7,-1.5 0.7,-1.6 0.7,-1.5 0.7,-1.6 0.7,-1.5 0.7,-1.5 0.7,-1.5 0.7,-1.6 0.7,-1.5 0.7,-1.5 0.7,-1.5 0.7,-1.5 0.7,-1.5 0.7,-1.5 0.7,-1.5 0.7,-1.5 0.7,-1.4 0.7,-1.5 0.7,-1.5 0.7,-1.4 0.7,-1.5 0.7,-1.4 0.7,-1.5 0.7,-1.4 0.7,-1.4 0.7,-1.5 0.7,-1.4 0.7,-1.4 0.7,-1.4 0.7,-1.4 0.7,-1.4 0.7,-1.4 0.7,-1.4 0.7,-1.4 0.7,-1.3 0.7,-1.4 0.7,-1.4 0.7,-1.3 0.7,-1.4 0.7,-1.3 0.7,-1.3 0.7,-1.4 0.7,-1.3 0.7,-1.3 0.7,-1.3 0.7,-1.3 0.7,-1.3 0.7,-1.3 0.7,-1.3 0.7,-1.3 0.7,-1.3 0.7,-1.2 0.7,-1.3 0.7,-1.2 0.7,-1.3 0.7,-1.2 0.7,-1.2 0.7,-1.3 0.7,-1.2 0.7,-1.2 0.7,-1.2 0.7,-1.2 0.7,-1.2 0.7,-1.2 0.7,-1.1 0.6,-1.2 0.7,-1.2 0.7,-1.1 0.7,-1.2 0.7,-1.1 0.7,-1.2 0.7,-1.1 0.7,-1.1 0.7,-1.1 0.7,-1.1 0.7,-1.1 0.7,-1.1 0.7,-1.1 0.7,-1.1 0.7,-1 0.7,-1.1 0.7,-1 0.7,-1.1 0.7,-1 0.7,-1.1 0.7,-1 0.7,-1 0.7,-1 0.7,-1 0.7,-1 0.7,-1 0.7,-1 0.7,-0.9 0.7,-1 0.7,-0.9 0.7,-1 0.7,-0.9 0.7,-1 0.7,-0.9 0.7,-0.9 0.7,-0.9 0.7,-0.9 0.7,-0.9 0.7,-0.9 0.7,-0.8 0.7,-0.9 0.7,-0.9 0.7,-0.8 0.7,-0.9 0.7,-0.8 0.7,-0.8 0.7,-0.8 0.7,-0.8 0.7,-0.8 0.7,-0.8 0.7,-0.8 0.7,-0.8 0.7,-0.8 0.7,-0.7 0.7,-0.8 0.7,-0.7 0.7,-0.8 0.7,-0.7 0.7,-0.7 0.7,-0.7 0.7,-0.7 0.7,-0.7 0.7,-0.7 0.7,-0.7 0.7,-0.6 0.7,-0.7 0.7,-0.6 0.7,-0.7 0.7,-0.6 0.7,-0.6 0.7,-0.7 0.7,-0.6 0.7,-0.6 0.7,-0.6 0.7,-0.5 0.7,-0.6 0.7,-0.6 0.7,-0.5 0.7,-0.6 0.7,-0.5 0.7,-0.5 0.7,-0.6 0.7,-0.5 0.7,-0.5 0.7,-0.5 0.7,-0.5 0.7,-0.4 0.7,-0.5 0.7,-0.5 0.7,-0.4 0.7,-0.4 0.7,-0.5 0.7,-0.4 0.7,-0.4 0.7,-0.4 0.7,-0.4 0.7,-0.4 0.7,-0.4 0.7,-0.3 0.7,-0.4 0.7,-0.4 0.7,-0.3 0.7,-0.3 0.7,-0.4 0.7,-0.3 0.7,-0.3 0.7,-0.3 0.7,-0.3 0.7,-0.2 0.7,-0.3 0.7,-0.3 0.7,-0.2 0.7,-0.3 0.7,-0.2 0.7,-0.2 0.7,-0.2 0.6,-0.3 0.7,-0.2 0.7,-0.1 0.7,-0.2 0.7,-0.2 0.7,-0.2 0.7,-0.1 0.7,-0.1 0.7,-0.2 0.7,-0.1 0.7,-0.1 0.7,-0.1 0.7,-0.1 0.7,-0.1 0.7,-0.1 0.7,-0.1 0.7,0 0.7,-0.1 0.7,0 0.7,-0.1 0.7,0 0.7,0 0.7,0 0.7,0 0.7,0 0.7,0 0.7,0.1 0.7,0 0.7,0.1 0.7,0 0.7,0.1 0.7,0.1 0.7,0 0.7,0.1 0.7,0.1 0.7,0.2 0.7,0.1 0.7,0.1 0.7,0.1 0.7,0.2 0.7,0.2 0.7,0.1 0.7,0.2 0.7,0.2 0.7,0.2 0.7,0.2 0.7,0.2 0.7,0.2 0.7,0.2 0.7,0.3 0.7,0.2 0.7,0.3 0.7,0.3 0.7,0.2 0.7,0.3 0.7,0.3 0.7,0.3 0.7,0.3 0.7,0.4 0.7,0.3 0.7,0.3 0.7,0.4 0.7,0.3 0.7,0.4 0.7,0.4 0.7,0.4 0.7,0.4 0.7,0.4 0.7,0.4 0.7,0.4 0.7,0.4 0.7,0.5 0.7,0.4 0.7,0.5 0.7,0.4 0.7,0.5 0.7,0.5 0.7,0.5 0.7,0.5 0.7,0.5 0.7,0.5 0.7,0.5 0.7,0.6 0.7,0.5 0.7,0.6 0.7,0.5 0.7,0.6 0.7,0.6 0.7,0.5 0.7,0.6 0.7,0.6 0.7,0.7 0.7,0.6 0.7,0.6 0.7,0.7 0.7,0.6 0.7,0.7 0.7,0.6 0.7,0.7 0.7,0.7 0.7,0.7 0.7,0.7 0.7,0.7 0.7,0.7 0.7,0.7 0.7,0.7 0.7,0.8 0.7,0.7 0.7,0.8 0.7,0.8 0.7,0.7 0.7,0.8 0.7,0.8 0.7,0.8 0.7,0.8 0.7,0.8 0.7,0.8 0.6,0.9 0.7,0.8 0.7,0.9 0.7,0.8 0.7,0.9 0.7,0.9 0.7,0.8 0.7,0.9 0.7,0.9 0.7,0.9 0.7,0.9 0.7,1 0.7,0.9 0.7,0.9 0.7,1 0.7,0.9 0.7,1 0.7,0.9 0.7,1 0.7,1 0.7,1 0.7,1 0.7,1 0.7,1 0.7,1 0.7,1 0.7,1.1 0.7,1 0.7,1.1 0.7,1 0.7,1.1 0.7,1.1 0.7,1.1 0.7,1 0.7,1.1 0.7,1.1 0.7,1.1 0.7,1.2 0.7,1.1 0.7,1.1 0.7,1.2 0.7,1.1 0.7,1.2 0.7,1.1 0.7,1.2 0.7,1.2 0.7,1.1 0.7,1.2 0.7,1.2 0.7,1.2 0.7,1.2 0.7,1.2 0.7,1.3 0.7,1.2 0.7,1.2 0.7,1.3 0.7,1.2 0.7,1.3 0.7,1.2 0.7,1.3 0.7,1.3 0.7,1.3 0.7,1.3 0.7,1.3 0.7,1.3 0.7,1.3 0.7,1.3 0.7,1.3 0.7,1.3 0.7,1.4 0.7,1.3 0.7,1.3 0.7,1.4 0.7,1.4 0.7,1.3 0.7,1.4 0.7,1.4 0.7,1.4 0.7,1.3 0.7,1.4 0.7,1.4 0.7,1.4 0.7,1.5 0.7,1.4 0.7,1.4 0.7,1.4 0.7,1.5 0.7,1.4 0.7,1.4 0.7,1.5 0.7,1.5 0.7,1.4 0.7,1.5 0.7,1.5 0.7,1.4 0.7,1.5 0.7,1.5 0.7,1.5 0.7,1.5 0.7,1.5 0.7,1.5 0.7,1.5 0.7,1.6 0.7,1.5 0.7,1.5 0.7,1.6 0.7,1.5 0.7,1.5 0.7,1.6 0.7,1.6 0.7,1.5 0.7,1.6 0.7,1.5 0.7,1.6 0.7,1.6 0.7,1.6 0.7,1.6 0.6,1.6 0.7,1.6 0.7,1.6 0.7,1.6 0.7,1.6 0.7,1.6 0.7,1.6 0.7,1.6 0.7,1.7 0.7,1.6 0.7,1.6 0.7,1.7 0.7,1.6 0.7,1.7 0.7,1.6 0.7,1.7 0.7,1.6 0.7,1.7 0.7,1.7 0.7,1.6 0.7,1.7 0.7,1.7 0.7,1.7 0.7,1.7 0.7,1.7 0.7,1.6 0.7,1.7 0.7,1.7 0.7,1.7 0.7,1.7 0.7,1.8 0.7,1.7 0.7,1.7 0.7,1.7 0.7,1.7 0.7,1.8 0.7,1.7 0.7,1.7 0.7,1.7 0.7,1.8 0.7,1.7 0.7,1.8 0.7,1.7 0.7,1.8 0.7,1.7 0.7,1.8 0.7,1.7 0.7,1.8 0.7,1.7 0.7,1.8 0.7,1.8 0.7,1.7 0.7,1.8 0.7,1.8 0.7,1.8 0.7,1.7 0.7,1.8 0.7,1.8 0.7,1.8 0.7,1.8 0.7,1.8 0.7,1.7 0.7,1.8 0.7,1.8 0.7,1.8 0.7,1.8 0.7,1.8 0.7,1.8 0.7,1.8 0.7,1.8 0.7,1.8 0.7,1.8 0.7,1.8 0.7,1.9 0.7,1.8 0.7,1.8 0.7,1.8 0.7,1.8 0.7,1.8 0.7,1.8 0.7,1.9 0.7,1.8 0.7,1.8 0.7,1.8 0.7,1.8 0.7,1.9 0.7,1.8 0.7,1.8 0.7,1.8 0.7,1.9 0.7,1.8 0.7,1.8 0.7,1.8 0.7,1.9 0.7,1.8 0.7,1.8 0.7,1.8 0.7,1.9 0.7,1.8 0.7,1.8 0.7,1.9 0.7,1.8 0.7,1.8 -439.1,0.6"
           id="path199"
           inkscape:connector-curvature="0"
           style="stroke:#000000" />
      </g>
    </g>
    <g
       id="gnuplot_plot_3a">
      <title
         id="title202">gnuplot_plot_3a</title>
      <g
         id="g204"
         style="color:#ffffff;fill:none;stroke:#000000;stroke-width:1;stroke-linecap:butt;stroke-linejoin:miter" />
      <g
         id="g206"
         style="color:#000000;fill:none;stroke:currentColor;stroke-width:1;stroke-linecap:butt;stroke-linejoin:miter">
        <g
           id="g208"
           style="stroke:none;shape-rendering:crispEdges">
          <polygon
             points="49.8,373 50.5,371.2 51.2,369.4 51.9,367.6 52.6,365.7 53.3,363.9 54,362.1 54.7,360.3 55.4,358.5 56.1,356.7 56.8,354.9 57.5,353 58.2,351.2 58.9,349.4 59.6,347.7 60.3,345.9 61,344.1 61.7,342.3 62.4,340.5 63.1,338.7 63.8,337 64.5,335.2 65.2,333.4 65.9,331.7 66.6,329.9 67.3,328.2 68,326.5 68.7,324.7 69.4,323 70.1,321.3 70.8,319.6 71.5,317.8 72.2,316.1 72.9,314.4 73.6,312.8 74.3,311.1 75,309.4 75.7,307.7 76.4,306.1 77.1,304.4 77.8,302.8 78.5,301.1 79.2,299.5 79.9,297.9 80.6,296.3 81.3,294.7 82,293.1 82.7,291.5 83.4,289.9 84.1,288.4 84.8,286.8 85.5,285.3 86.2,283.7 86.8,282.2 87.5,280.7 88.2,279.2 88.9,277.7 89.6,276.2 90.3,274.7 91,273.3 91.7,271.8 92.4,270.4 93.1,269 93.8,267.5 94.5,266.1 95.2,264.7 95.9,263.4 96.6,262 97.3,260.6 98,259.3 98.7,258 99.4,256.6 100.1,255.3 100.8,254 101.5,252.8 102.2,251.5 102.9,250.2 103.6,249 104.3,247.8 105,246.6 105.7,245.4 106.4,244.2 107.1,243 107.8,241.8 108.5,240.7 109.2,239.6 109.9,238.4 110.6,237.3 111.3,236.3 112,235.2 112.7,234.1 113.4,233.1 114.1,232.1 114.8,231 115.5,230.1 116.2,229.1 116.9,228.1 117.6,227.2 118.3,226.2 119,225.3 119.7,224.4 120.4,223.5 121.1,222.6 121.8,221.8 122.5,221 123.2,220.1 123.9,219.3 124.6,218.5 125.3,217.8 126,217 126.7,216.3 127.4,215.5 128.1,214.8 128.8,214.2 129.5,213.5 130.2,212.8 130.9,212.2 131.6,211.6 132.3,211 133,210.4 133.7,209.8 134.4,209.3 135.1,208.7 135.8,208.2 136.5,207.7 137.2,207.2 137.9,206.8 138.6,206.3 139.3,205.9 140,205.5 140.7,205.1 141.4,204.7 142.1,204.4 142.8,204 143.5,203.7 144.2,203.4 144.9,203.1 145.6,202.9 146.3,202.6 147,202.4 147.7,202.2 148.4,202 149.1,201.8 149.8,201.6 150.5,201.5 151.2,201.4 151.9,201.3 152.6,201.2 153.3,201.1 154,201.1 154.7,201.1 155.4,201.1 156.1,201.1 156.8,201.1 157.5,201.1 158.2,201.2 158.9,201.3 159.6,201.4 160.3,201.5 161,201.6 161.7,201.8 162.4,201.9 163.1,202.1 163.8,202.3 164.5,202.6 165.2,202.8 165.9,203.1 166.6,203.4 167.3,203.7 168,204 168.6,204.3 169.3,204.7 170,205 170.7,205.4 171.4,205.8 172.1,206.3 172.8,206.7 173.5,207.2 174.2,207.6 174.9,208.1 175.6,208.6 176.3,209.2 177,209.7 177.7,210.3 178.4,210.9 179.1,211.5 179.8,212.1 180.5,212.7 181.2,213.4 181.9,214 182.6,214.7 183.3,215.4 184,216.2 184.7,216.9 185.4,217.6 186.1,218.4 186.8,219.2 187.5,220 188.2,220.8 188.9,221.7 189.6,222.5 190.3,223.4 191,224.3 191.7,225.2 192.4,226.1 193.1,227 193.8,228 194.5,228.9 195.2,229.9 195.9,230.9 196.6,231.9 197.3,232.9 198,234 198.7,235 199.4,236.1 200.1,237.2 200.8,238.3 201.5,239.4 202.2,240.5 202.9,241.7 203.6,242.8 204.3,244 205,245.2 205.7,246.4 206.4,247.6 207.1,248.8 207.8,250 208.5,251.3 209.2,252.6 209.9,253.8 210.6,255.1 211.3,256.4 212,257.8 212.7,259.1 213.4,260.4 214.1,261.8 214.8,263.1 215.5,264.5 216.2,265.9 216.9,267.3 217.6,268.7 218.3,270.2 219,271.6 219.7,273 220.4,274.5 221.1,276 221.8,277.5 222.5,279 223.2,280.5 223.9,282 224.6,283.5 225.3,285 226,286.6 226.7,288.1 227.4,289.7 228.1,291.3 228.8,292.8 229.5,294.4 230.2,296 230.9,297.6 231.6,299.3 232.3,300.9 233,302.5 233.7,304.2 234.4,305.8 235.1,307.5 235.8,309.1 236.5,310.8 237.2,312.5 237.9,314.2 238.6,315.9 239.3,317.6 240,319.3 240.7,321 241.4,322.7 242.1,324.4 242.8,326.2 243.5,327.9 244.2,329.7 244.9,331.4 245.6,333.2 246.3,334.9 247,336.7 247.7,338.5 248.4,340.2 249.1,342 249.7,343.8 250.4,345.6 251.1,347.4 251.8,349.2 252.5,351 253.2,352.8 253.9,354.6 254.6,356.4 255.3,358.2 256,360 256.7,361.8 257.4,363.6 258.1,365.4 258.8,367.3 259.5,369.1 260.2,370.9 260.9,372.7 261.6,374.6 262.3,376.4 263,378.2 263.7,380 264.4,381.9 265.1,383.7 265.8,382.5 266.5,380.6 267.2,378.8 267.9,377 268.6,375.1 269.3,373.3 270,371.5 270.7,369.7 271.4,367.8 272.1,366 272.8,364.2 273.5,362.4 274.2,360.6 274.9,358.8 275.6,356.9 276.3,355.1 277,353.3 277.7,351.5 278.4,349.7 279.1,347.9 279.8,346.1 280.5,344.4 281.2,342.6 281.9,340.8 282.6,339 283.3,337.2 284,335.5 284.7,333.7 285.4,332 286.1,330.2 286.8,328.5 287.5,326.7 288.2,325 288.9,323.3 289.6,321.5 290.3,319.8 291,318.1 291.7,316.4 292.4,314.7 293.1,313 293.8,311.3 294.5,309.7 295.2,308 295.9,306.3 296.6,304.7 297.3,303 298,301.4 298.7,299.8 299.4,298.2 300.1,296.5 300.8,294.9 301.5,293.3 302.2,291.8 302.9,290.2 303.6,288.6 304.3,287.1 305,285.5 305.7,284 306.4,282.5 307.1,280.9 307.8,279.4 308.5,277.9 309.2,276.5 309.9,275 310.6,273.5 311.3,272.1 312,270.6 312.7,269.2 313.4,267.8 314.1,266.4 314.8,265 315.5,263.6 316.2,262.2 316.9,260.9 317.6,259.5 318.3,258.2 319,256.9 319.7,255.5 320.4,254.2 321.1,253 321.8,251.7 322.5,250.4 323.2,249.2 323.9,248 324.6,246.7 325.3,245.5 326,244.4 326.7,243.2 327.4,242 328.1,240.9 328.8,239.7 329.5,238.6 330.2,237.5 330.9,236.4 331.5,235.4 332.2,234.3 332.9,233.3 333.6,232.2 334.3,231.2 335,230.2 335.7,229.2 336.4,228.3 337.1,227.3 337.8,226.4 338.5,225.5 339.2,224.5 339.9,223.7 340.6,222.8 341.3,221.9 342,221.1 342.7,220.3 343.4,219.5 344.1,218.7 344.8,217.9 345.5,217.1 346.2,216.4 346.9,215.7 347.6,215 348.3,214.3 349,213.6 349.7,212.9 350.4,212.3 351.1,211.7 351.8,211.1 352.5,210.5 353.2,209.9 353.9,209.4 354.6,208.8 355.3,208.3 356,207.8 356.7,207.3 357.4,206.8 358.1,206.4 358.8,206 359.5,205.6 360.2,205.2 360.9,204.8 361.6,204.4 362.3,204.1 363,203.8 363.7,203.5 364.4,203.2 365.1,202.9 365.8,202.7 366.5,202.4 367.2,202.2 367.9,202 368.6,201.8 369.3,201.7 370,201.5 370.7,201.4 371.4,201.3 372.1,201.2 372.8,201.1 373.5,201.1 374.2,201.1 374.9,201.1 375.6,201.1 376.3,201.1 377,201.1 377.7,201.2 378.4,201.3 379.1,201.4 379.8,201.5 380.5,201.6 381.2,201.8 381.9,201.9 382.6,202.1 383.3,202.3 384,202.5 384.7,202.8 385.4,203 386.1,203.3 386.8,203.6 387.5,203.9 388.2,204.3 388.9,204.6 389.6,205 390.3,205.4 391,205.8 391.7,206.2 392.4,206.6 393.1,207.1 393.8,207.6 394.5,208.1 395.2,208.6 395.9,209.1 396.6,209.6 397.3,210.2 398,210.8 398.7,211.4 399.4,212 400.1,212.6 400.8,213.3 401.5,213.9 402.2,214.6 402.9,215.3 403.6,216 404.3,216.8 405,217.5 405.7,218.3 406.4,219.1 407.1,219.9 407.8,220.7 408.5,221.5 409.2,222.4 409.9,223.2 410.6,224.1 411.3,225 412,225.9 412.7,226.9 413.3,227.8 414,228.8 414.7,229.7 415.4,230.7 416.1,231.7 416.8,232.8 417.5,233.8 418.2,234.8 418.9,235.9 419.6,237 420.3,238.1 421,239.2 421.7,240.3 422.4,241.5 423.1,242.6 423.8,243.8 424.5,245 425.2,246.2 425.9,247.4 426.6,248.6 427.3,249.8 428,251.1 428.7,252.4 429.4,253.6 430.1,254.9 430.8,256.2 431.5,257.5 432.2,258.9 432.9,260.2 433.6,261.6 434.3,262.9 435,264.3 435.7,265.7 436.4,267.1 437.1,268.5 437.8,269.9 438.5,271.4 439.2,272.8 439.9,274.3 440.6,275.7 441.3,277.2 442,278.7 442.7,280.2 443.4,281.7 444.1,283.3 444.8,284.8 445.5,286.3 446.2,287.9 446.9,289.4 447.6,291 448.3,292.6 449,294.2 449.7,295.8 450.4,297.4 451.1,299 451.8,300.6 452.5,302.3 453.2,303.9 453.9,305.5 454.6,307.2 455.3,308.9 456,310.5 456.7,312.2 457.4,313.9 458.1,315.6 458.8,317.3 459.5,319 460.2,320.7 460.9,322.4 461.6,324.2 462.3,325.9 463,327.6 463.7,329.4 464.4,331.1 465.1,332.9 465.8,334.6 466.5,336.4 467.2,338.2 467.9,339.9 468.6,341.7 469.3,343.5 470,345.3 470.7,347.1 471.4,348.9 472.1,350.7 472.8,352.5 473.5,354.3 474.2,356.1 474.9,357.9 475.6,359.7 476.3,361.5 477,363.3 477.7,365.2 478.4,367 479.1,368.8 479.8,370.6 480.5,372.4 481.2,374.3 481.9,376.1 482.6,377.9 483.3,379.8 484,381.6 484.7,383.4 45.6,384 45.6,384 46.3,382.2 47,380.3 47.7,378.5 48.4,376.7 49.1,374.9 "
             id="polygon210"
             style="fill:url(#linearGradient4391);fill-opacity:1" />
        </g>
        <path
           d="m 45.6,384 0.7,-1.8 0.7,-1.9 0.7,-1.8 0.7,-1.8 0.7,-1.8 0.7,-1.9 0.7,-1.8 0.7,-1.8 0.7,-1.8 0.7,-1.9 0.7,-1.8 0.7,-1.8 0.7,-1.8 0.7,-1.8 0.7,-1.8 0.7,-1.8 0.7,-1.9 0.7,-1.8 0.7,-1.8 0.7,-1.7 0.7,-1.8 0.7,-1.8 0.7,-1.8 0.7,-1.8 0.7,-1.8 0.7,-1.7 0.7,-1.8 0.7,-1.8 0.7,-1.7 0.7,-1.8 0.7,-1.7 0.7,-1.7 0.7,-1.8 0.7,-1.7 0.7,-1.7 0.7,-1.7 0.7,-1.8 0.7,-1.7 0.7,-1.7 0.7,-1.6 0.7,-1.7 0.7,-1.7 0.7,-1.7 0.7,-1.6 0.7,-1.7 0.7,-1.6 0.7,-1.7 0.7,-1.6 0.7,-1.6 0.7,-1.6 0.7,-1.6 0.7,-1.6 0.7,-1.6 0.7,-1.6 0.7,-1.5 0.7,-1.6 0.7,-1.5 0.7,-1.6 0.6,-1.5 0.7,-1.5 0.7,-1.5 0.7,-1.5 0.7,-1.5 0.7,-1.5 0.7,-1.4 0.7,-1.5 0.7,-1.4 0.7,-1.4 0.7,-1.5 0.7,-1.4 0.7,-1.4 0.7,-1.3 0.7,-1.4 0.7,-1.4 0.7,-1.3 0.7,-1.3 0.7,-1.4 0.7,-1.3 0.7,-1.3 0.7,-1.2 0.7,-1.3 0.7,-1.3 0.7,-1.2 0.7,-1.2 0.7,-1.2 0.7,-1.2 0.7,-1.2 0.7,-1.2 0.7,-1.2 0.7,-1.1 0.7,-1.1 0.7,-1.2 0.7,-1.1 0.7,-1 0.7,-1.1 0.7,-1.1 0.7,-1 0.7,-1 0.7,-1.1 0.7,-0.9 0.7,-1 0.7,-1 0.7,-0.9 0.7,-1 0.7,-0.9 0.7,-0.9 0.7,-0.9 0.7,-0.9 0.7,-0.8 0.7,-0.8 0.7,-0.9 0.7,-0.8 0.7,-0.8 0.7,-0.7 0.7,-0.8 0.7,-0.7 0.7,-0.8 0.7,-0.7 0.7,-0.6 0.7,-0.7 0.7,-0.7 0.7,-0.6 0.7,-0.6 0.7,-0.6 0.7,-0.6 0.7,-0.6 0.7,-0.5 0.7,-0.6 0.7,-0.5 0.7,-0.5 0.7,-0.5 0.7,-0.4 0.7,-0.5 0.7,-0.4 0.7,-0.4 0.7,-0.4 0.7,-0.4 0.7,-0.3 0.7,-0.4 0.7,-0.3 0.7,-0.3 0.7,-0.3 0.7,-0.2 0.7,-0.3 0.7,-0.2 0.7,-0.2 0.7,-0.2 0.7,-0.2 0.7,-0.2 0.7,-0.1 0.7,-0.1 0.7,-0.1 0.7,-0.1 0.7,-0.1 0.7,0 0.7,0 0.7,0 0.7,0 0.7,0 0.7,0 0.7,0.1 0.7,0.1 0.7,0.1 0.7,0.1 0.7,0.1 0.7,0.2 0.7,0.1 0.7,0.2 0.7,0.2 0.7,0.3 0.7,0.2 0.7,0.3 0.7,0.3 0.7,0.3 0.7,0.3 0.6,0.3 0.7,0.4 0.7,0.3 0.7,0.4 0.7,0.4 0.7,0.5 0.7,0.4 0.7,0.5 0.7,0.4 0.7,0.5 0.7,0.5 0.7,0.6 0.7,0.5 0.7,0.6 0.7,0.6 0.7,0.6 0.7,0.6 0.7,0.6 0.7,0.7 0.7,0.6 0.7,0.7 0.7,0.7 0.7,0.8 0.7,0.7 0.7,0.7 0.7,0.8 0.7,0.8 0.7,0.8 0.7,0.8 0.7,0.9 0.7,0.8 0.7,0.9 0.7,0.9 0.7,0.9 0.7,0.9 0.7,0.9 0.7,1 0.7,0.9 0.7,1 0.7,1 0.7,1 0.7,1 0.7,1.1 0.7,1 0.7,1.1 0.7,1.1 0.7,1.1 0.7,1.1 0.7,1.1 0.7,1.2 0.7,1.1 0.7,1.2 0.7,1.2 0.7,1.2 0.7,1.2 0.7,1.2 0.7,1.2 0.7,1.3 0.7,1.3 0.7,1.2 0.7,1.3 0.7,1.3 0.7,1.4 0.7,1.3 0.7,1.3 0.7,1.4 0.7,1.3 0.7,1.4 0.7,1.4 0.7,1.4 0.7,1.4 0.7,1.5 0.7,1.4 0.7,1.4 0.7,1.5 0.7,1.5 0.7,1.5 0.7,1.5 0.7,1.5 0.7,1.5 0.7,1.5 0.7,1.5 0.7,1.6 0.7,1.5 0.7,1.6 0.7,1.6 0.7,1.5 0.7,1.6 0.7,1.6 0.7,1.6 0.7,1.7 0.7,1.6 0.7,1.6 0.7,1.7 0.7,1.6 0.7,1.7 0.7,1.6 0.7,1.7 0.7,1.7 0.7,1.7 0.7,1.7 0.7,1.7 0.7,1.7 0.7,1.7 0.7,1.7 0.7,1.7 0.7,1.8 0.7,1.7 0.7,1.8 0.7,1.7 0.7,1.8 0.7,1.7 0.7,1.8 0.7,1.8 0.7,1.7 0.7,1.8 0.6,1.8 0.7,1.8 0.7,1.8 0.7,1.8 0.7,1.8 0.7,1.8 0.7,1.8 0.7,1.8 0.7,1.8 0.7,1.8 0.7,1.8 0.7,1.8 0.7,1.8 0.7,1.9 0.7,1.8 0.7,1.8 0.7,1.8 0.7,1.9 0.7,1.8 0.7,1.8 0.7,1.8 0.7,1.9 0.7,1.8 0.7,-1.2 0.7,-1.9 0.7,-1.8 0.7,-1.8 0.7,-1.9 0.7,-1.8 0.7,-1.8 0.7,-1.8 0.7,-1.9 0.7,-1.8 0.7,-1.8 0.7,-1.8 0.7,-1.8 0.7,-1.8 0.7,-1.9 0.7,-1.8 0.7,-1.8 0.7,-1.8 0.7,-1.8 0.7,-1.8 0.7,-1.8 0.7,-1.7 0.7,-1.8 0.7,-1.8 0.7,-1.8 0.7,-1.8 0.7,-1.7 0.7,-1.8 0.7,-1.7 0.7,-1.8 0.7,-1.7 0.7,-1.8 0.7,-1.7 0.7,-1.7 0.7,-1.8 0.7,-1.7 0.7,-1.7 0.7,-1.7 0.7,-1.7 0.7,-1.7 0.7,-1.7 0.7,-1.6 0.7,-1.7 0.7,-1.7 0.7,-1.6 0.7,-1.7 0.7,-1.6 0.7,-1.6 0.7,-1.6 0.7,-1.7 0.7,-1.6 0.7,-1.6 0.7,-1.5 0.7,-1.6 0.7,-1.6 0.7,-1.5 0.7,-1.6 0.7,-1.5 0.7,-1.5 0.7,-1.6 0.7,-1.5 0.7,-1.5 0.7,-1.4 0.7,-1.5 0.7,-1.5 0.7,-1.4 0.7,-1.5 0.7,-1.4 0.7,-1.4 0.7,-1.4 0.7,-1.4 0.7,-1.4 0.7,-1.4 0.7,-1.3 0.7,-1.4 0.7,-1.3 0.7,-1.3 0.7,-1.4 0.7,-1.3 0.7,-1.2 0.7,-1.3 0.7,-1.3 0.7,-1.2 0.7,-1.2 0.7,-1.3 0.7,-1.2 0.7,-1.1 0.7,-1.2 0.7,-1.2 0.7,-1.1 0.7,-1.2 0.7,-1.1 0.7,-1.1 0.7,-1.1 0.6,-1 0.7,-1.1 0.7,-1 0.7,-1.1 0.7,-1 0.7,-1 0.7,-1 0.7,-0.9 0.7,-1 0.7,-0.9 0.7,-0.9 0.7,-1 0.7,-0.8 0.7,-0.9 0.7,-0.9 0.7,-0.8 0.7,-0.8 0.7,-0.8 0.7,-0.8 0.7,-0.8 0.7,-0.8 0.7,-0.7 0.7,-0.7 0.7,-0.7 0.7,-0.7 0.7,-0.7 0.7,-0.7 0.7,-0.6 0.7,-0.6 0.7,-0.6 0.7,-0.6 0.7,-0.6 0.7,-0.5 0.7,-0.6 0.7,-0.5 0.7,-0.5 0.7,-0.5 0.7,-0.5 0.7,-0.4 0.7,-0.4 0.7,-0.4 0.7,-0.4 0.7,-0.4 0.7,-0.4 0.7,-0.3 0.7,-0.3 0.7,-0.3 0.7,-0.3 0.7,-0.3 0.7,-0.2 0.7,-0.3 0.7,-0.2 0.7,-0.2 0.7,-0.2 0.7,-0.1 0.7,-0.2 0.7,-0.1 0.7,-0.1 0.7,-0.1 0.7,-0.1 0.7,0 0.7,0 0.7,0 0.7,0 0.7,0 0.7,0 0.7,0.1 0.7,0.1 0.7,0.1 0.7,0.1 0.7,0.1 0.7,0.2 0.7,0.1 0.7,0.2 0.7,0.2 0.7,0.2 0.7,0.3 0.7,0.2 0.7,0.3 0.7,0.3 0.7,0.3 0.7,0.4 0.7,0.3 0.7,0.4 0.7,0.4 0.7,0.4 0.7,0.4 0.7,0.4 0.7,0.5 0.7,0.5 0.7,0.5 0.7,0.5 0.7,0.5 0.7,0.5 0.7,0.6 0.7,0.6 0.7,0.6 0.7,0.6 0.7,0.6 0.7,0.7 0.7,0.6 0.7,0.7 0.7,0.7 0.7,0.7 0.7,0.8 0.7,0.7 0.7,0.8 0.7,0.8 0.7,0.8 0.7,0.8 0.7,0.8 0.7,0.9 0.7,0.8 0.7,0.9 0.7,0.9 0.7,0.9 0.7,1 0.6,0.9 0.7,1 0.7,0.9 0.7,1 0.7,1 0.7,1.1 0.7,1 0.7,1 0.7,1.1 0.7,1.1 0.7,1.1 0.7,1.1 0.7,1.1 0.7,1.2 0.7,1.1 0.7,1.2 0.7,1.2 0.7,1.2 0.7,1.2 0.7,1.2 0.7,1.2 0.7,1.3 0.7,1.3 0.7,1.2 0.7,1.3 0.7,1.3 0.7,1.3 0.7,1.4 0.7,1.3 0.7,1.4 0.7,1.3 0.7,1.4 0.7,1.4 0.7,1.4 0.7,1.4 0.7,1.4 0.7,1.5 0.7,1.4 0.7,1.5 0.7,1.4 0.7,1.5 0.7,1.5 0.7,1.5 0.7,1.5 0.7,1.6 0.7,1.5 0.7,1.5 0.7,1.6 0.7,1.5 0.7,1.6 0.7,1.6 0.7,1.6 0.7,1.6 0.7,1.6 0.7,1.6 0.7,1.6 0.7,1.7 0.7,1.6 0.7,1.6 0.7,1.7 0.7,1.7 0.7,1.6 0.7,1.7 0.7,1.7 0.7,1.7 0.7,1.7 0.7,1.7 0.7,1.7 0.7,1.7 0.7,1.8 0.7,1.7 0.7,1.7 0.7,1.8 0.7,1.7 0.7,1.8 0.7,1.7 0.7,1.8 0.7,1.8 0.7,1.7 0.7,1.8 0.7,1.8 0.7,1.8 0.7,1.8 0.7,1.8 0.7,1.8 0.7,1.8 0.7,1.8 0.7,1.8 0.7,1.8 0.7,1.8 0.7,1.8 0.7,1.8 0.7,1.9 0.7,1.8 0.7,1.8 0.7,1.8 0.7,1.8 0.7,1.9 0.7,1.8 0.7,1.8 0.7,1.9 0.7,1.8 0.7,1.8 -439.1,0.6"
           id="path212"
           inkscape:connector-curvature="0"
           style="stroke:#fde725" />
      </g>
    </g>
    <g
       id="gnuplot_plot_4a">
      <title
         id="title215">gnuplot_plot_4a</title>
      <g
         id="g217"
         style="color:#ffffff;fill:none;stroke:#fde725;stroke-width:0.5;stroke-linecap:butt;stroke-linejoin:miter" />
      <g
         id="g219"
         style="color:#000000;fill:none;stroke:currentColor;stroke-width:0.5;stroke-linecap:butt;stroke-linejoin:miter">
        <path
           d="m 45.6,384 0.7,-1.8 0.7,-1.9 0.7,-1.8 0.7,-1.8 0.7,-1.8 0.7,-1.9 0.7,-1.8 0.7,-1.8 0.7,-1.8 0.7,-1.9 0.7,-1.8 0.7,-1.8 0.7,-1.8 0.7,-1.8 0.7,-1.8 0.7,-1.8 0.7,-1.9 0.7,-1.8 0.7,-1.8 0.7,-1.7 0.7,-1.8 0.7,-1.8 0.7,-1.8 0.7,-1.8 0.7,-1.8 0.7,-1.7 0.7,-1.8 0.7,-1.8 0.7,-1.7 0.7,-1.8 0.7,-1.7 0.7,-1.7 0.7,-1.8 0.7,-1.7 0.7,-1.7 0.7,-1.7 0.7,-1.8 0.7,-1.7 0.7,-1.7 0.7,-1.6 0.7,-1.7 0.7,-1.7 0.7,-1.7 0.7,-1.6 0.7,-1.7 0.7,-1.6 0.7,-1.7 0.7,-1.6 0.7,-1.6 0.7,-1.6 0.7,-1.6 0.7,-1.6 0.7,-1.6 0.7,-1.6 0.7,-1.5 0.7,-1.6 0.7,-1.5 0.7,-1.6 0.6,-1.5 0.7,-1.5 0.7,-1.5 0.7,-1.5 0.7,-1.5 0.7,-1.5 0.7,-1.4 0.7,-1.5 0.7,-1.4 0.7,-1.4 0.7,-1.5 0.7,-1.4 0.7,-1.4 0.7,-1.3 0.7,-1.4 0.7,-1.4 0.7,-1.3 0.7,-1.3 0.7,-1.4 0.7,-1.3 0.7,-1.3 0.7,-1.2 0.7,-1.3 0.7,-1.3 0.7,-1.2 0.7,-1.2 0.7,-1.2 0.7,-1.2 0.7,-1.2 0.7,-1.2 0.7,-1.2 0.7,-1.1 0.7,-1.1 0.7,-1.2 0.7,-1.1 0.7,-1 0.7,-1.1 0.7,-1.1 0.7,-1 0.7,-1 0.7,-1.1 0.7,-0.9 0.7,-1 0.7,-1 0.7,-0.9 0.7,-1 0.7,-0.9 0.7,-0.9 0.7,-0.9 0.7,-0.9 0.7,-0.8 0.7,-0.8 0.7,-0.9 0.7,-0.8 0.7,-0.8 0.7,-0.7 0.7,-0.8 0.7,-0.7 0.7,-0.8 0.7,-0.7 0.7,-0.6 0.7,-0.7 0.7,-0.7 0.7,-0.6 0.7,-0.6 0.7,-0.6 0.7,-0.6 0.7,-0.6 0.7,-0.5 0.7,-0.6 0.7,-0.5 0.7,-0.5 0.7,-0.5 0.7,-0.4 0.7,-0.5 0.7,-0.4 0.7,-0.4 0.7,-0.4 0.7,-0.4 0.7,-0.3 0.7,-0.4 0.7,-0.3 0.7,-0.3 0.7,-0.3 0.7,-0.2 0.7,-0.3 0.7,-0.2 0.7,-0.2 0.7,-0.2 0.7,-0.2 0.7,-0.2 0.7,-0.1 0.7,-0.1 0.7,-0.1 0.7,-0.1 0.7,-0.1 0.7,0 0.7,0 0.7,0 0.7,0 0.7,0 0.7,0 0.7,0.1 0.7,0.1 0.7,0.1 0.7,0.1 0.7,0.1 0.7,0.2 0.7,0.1 0.7,0.2 0.7,0.2 0.7,0.3 0.7,0.2 0.7,0.3 0.7,0.3 0.7,0.3 0.7,0.3 0.6,0.3 0.7,0.4 0.7,0.3 0.7,0.4 0.7,0.4 0.7,0.5 0.7,0.4 0.7,0.5 0.7,0.4 0.7,0.5 0.7,0.5 0.7,0.6 0.7,0.5 0.7,0.6 0.7,0.6 0.7,0.6 0.7,0.6 0.7,0.6 0.7,0.7 0.7,0.6 0.7,0.7 0.7,0.7 0.7,0.8 0.7,0.7 0.7,0.7 0.7,0.8 0.7,0.8 0.7,0.8 0.7,0.8 0.7,0.9 0.7,0.8 0.7,0.9 0.7,0.9 0.7,0.9 0.7,0.9 0.7,0.9 0.7,1 0.7,0.9 0.7,1 0.7,1 0.7,1 0.7,1 0.7,1.1 0.7,1 0.7,1.1 0.7,1.1 0.7,1.1 0.7,1.1 0.7,1.1 0.7,1.2 0.7,1.1 0.7,1.2 0.7,1.2 0.7,1.2 0.7,1.2 0.7,1.2 0.7,1.2 0.7,1.3 0.7,1.3 0.7,1.2 0.7,1.3 0.7,1.3 0.7,1.4 0.7,1.3 0.7,1.3 0.7,1.4 0.7,1.3 0.7,1.4 0.7,1.4 0.7,1.4 0.7,1.4 0.7,1.5 0.7,1.4 0.7,1.4 0.7,1.5 0.7,1.5 0.7,1.5 0.7,1.5 0.7,1.5 0.7,1.5 0.7,1.5 0.7,1.5 0.7,1.6 0.7,1.5 0.7,1.6 0.7,1.6 0.7,1.5 0.7,1.6 0.7,1.6 0.7,1.6 0.7,1.7 0.7,1.6 0.7,1.6 0.7,1.7 0.7,1.6 0.7,1.7 0.7,1.6 0.7,1.7 0.7,1.7 0.7,1.7 0.7,1.7 0.7,1.7 0.7,1.7 0.7,1.7 0.7,1.7 0.7,1.7 0.7,1.8 0.7,1.7 0.7,1.8 0.7,1.7 0.7,1.8 0.7,1.7 0.7,1.8 0.7,1.8 0.7,1.7 0.7,1.8 0.6,1.8 0.7,1.8 0.7,1.8 0.7,1.8 0.7,1.8 0.7,1.8 0.7,1.8 0.7,1.8 0.7,1.8 0.7,1.8 0.7,1.8 0.7,1.8 0.7,1.8 0.7,1.9 0.7,1.8 0.7,1.8 0.7,1.8 0.7,1.9 0.7,1.8 0.7,1.8 0.7,1.8 0.7,1.9 0.7,1.8 0.7,-1.2 0.7,-1.9 0.7,-1.8 0.7,-1.8 0.7,-1.9 0.7,-1.8 0.7,-1.8 0.7,-1.8 0.7,-1.9 0.7,-1.8 0.7,-1.8 0.7,-1.8 0.7,-1.8 0.7,-1.8 0.7,-1.9 0.7,-1.8 0.7,-1.8 0.7,-1.8 0.7,-1.8 0.7,-1.8 0.7,-1.8 0.7,-1.7 0.7,-1.8 0.7,-1.8 0.7,-1.8 0.7,-1.8 0.7,-1.7 0.7,-1.8 0.7,-1.7 0.7,-1.8 0.7,-1.7 0.7,-1.8 0.7,-1.7 0.7,-1.7 0.7,-1.8 0.7,-1.7 0.7,-1.7 0.7,-1.7 0.7,-1.7 0.7,-1.7 0.7,-1.7 0.7,-1.6 0.7,-1.7 0.7,-1.7 0.7,-1.6 0.7,-1.7 0.7,-1.6 0.7,-1.6 0.7,-1.6 0.7,-1.7 0.7,-1.6 0.7,-1.6 0.7,-1.5 0.7,-1.6 0.7,-1.6 0.7,-1.5 0.7,-1.6 0.7,-1.5 0.7,-1.5 0.7,-1.6 0.7,-1.5 0.7,-1.5 0.7,-1.4 0.7,-1.5 0.7,-1.5 0.7,-1.4 0.7,-1.5 0.7,-1.4 0.7,-1.4 0.7,-1.4 0.7,-1.4 0.7,-1.4 0.7,-1.4 0.7,-1.3 0.7,-1.4 0.7,-1.3 0.7,-1.3 0.7,-1.4 0.7,-1.3 0.7,-1.2 0.7,-1.3 0.7,-1.3 0.7,-1.2 0.7,-1.2 0.7,-1.3 0.7,-1.2 0.7,-1.1 0.7,-1.2 0.7,-1.2 0.7,-1.1 0.7,-1.2 0.7,-1.1 0.7,-1.1 0.7,-1.1 0.6,-1 0.7,-1.1 0.7,-1 0.7,-1.1 0.7,-1 0.7,-1 0.7,-1 0.7,-0.9 0.7,-1 0.7,-0.9 0.7,-0.9 0.7,-1 0.7,-0.8 0.7,-0.9 0.7,-0.9 0.7,-0.8 0.7,-0.8 0.7,-0.8 0.7,-0.8 0.7,-0.8 0.7,-0.8 0.7,-0.7 0.7,-0.7 0.7,-0.7 0.7,-0.7 0.7,-0.7 0.7,-0.7 0.7,-0.6 0.7,-0.6 0.7,-0.6 0.7,-0.6 0.7,-0.6 0.7,-0.5 0.7,-0.6 0.7,-0.5 0.7,-0.5 0.7,-0.5 0.7,-0.5 0.7,-0.4 0.7,-0.4 0.7,-0.4 0.7,-0.4 0.7,-0.4 0.7,-0.4 0.7,-0.3 0.7,-0.3 0.7,-0.3 0.7,-0.3 0.7,-0.3 0.7,-0.2 0.7,-0.3 0.7,-0.2 0.7,-0.2 0.7,-0.2 0.7,-0.1 0.7,-0.2 0.7,-0.1 0.7,-0.1 0.7,-0.1 0.7,-0.1 0.7,0 0.7,0 0.7,0 0.7,0 0.7,0 0.7,0 0.7,0.1 0.7,0.1 0.7,0.1 0.7,0.1 0.7,0.1 0.7,0.2 0.7,0.1 0.7,0.2 0.7,0.2 0.7,0.2 0.7,0.3 0.7,0.2 0.7,0.3 0.7,0.3 0.7,0.3 0.7,0.4 0.7,0.3 0.7,0.4 0.7,0.4 0.7,0.4 0.7,0.4 0.7,0.4 0.7,0.5 0.7,0.5 0.7,0.5 0.7,0.5 0.7,0.5 0.7,0.5 0.7,0.6 0.7,0.6 0.7,0.6 0.7,0.6 0.7,0.6 0.7,0.7 0.7,0.6 0.7,0.7 0.7,0.7 0.7,0.7 0.7,0.8 0.7,0.7 0.7,0.8 0.7,0.8 0.7,0.8 0.7,0.8 0.7,0.8 0.7,0.9 0.7,0.8 0.7,0.9 0.7,0.9 0.7,0.9 0.7,1 0.6,0.9 0.7,1 0.7,0.9 0.7,1 0.7,1 0.7,1.1 0.7,1 0.7,1 0.7,1.1 0.7,1.1 0.7,1.1 0.7,1.1 0.7,1.1 0.7,1.2 0.7,1.1 0.7,1.2 0.7,1.2 0.7,1.2 0.7,1.2 0.7,1.2 0.7,1.2 0.7,1.3 0.7,1.3 0.7,1.2 0.7,1.3 0.7,1.3 0.7,1.3 0.7,1.4 0.7,1.3 0.7,1.4 0.7,1.3 0.7,1.4 0.7,1.4 0.7,1.4 0.7,1.4 0.7,1.4 0.7,1.5 0.7,1.4 0.7,1.5 0.7,1.4 0.7,1.5 0.7,1.5 0.7,1.5 0.7,1.5 0.7,1.6 0.7,1.5 0.7,1.5 0.7,1.6 0.7,1.5 0.7,1.6 0.7,1.6 0.7,1.6 0.7,1.6 0.7,1.6 0.7,1.6 0.7,1.6 0.7,1.7 0.7,1.6 0.7,1.6 0.7,1.7 0.7,1.7 0.7,1.6 0.7,1.7 0.7,1.7 0.7,1.7 0.7,1.7 0.7,1.7 0.7,1.7 0.7,1.7 0.7,1.8 0.7,1.7 0.7,1.7 0.7,1.8 0.7,1.7 0.7,1.8 0.7,1.7 0.7,1.8 0.7,1.8 0.7,1.7 0.7,1.8 0.7,1.8 0.7,1.8 0.7,1.8 0.7,1.8 0.7,1.8 0.7,1.8 0.7,1.8 0.7,1.8 0.7,1.8 0.7,1.8 0.7,1.8 0.7,1.8 0.7,1.9 0.7,1.8 0.7,1.8 0.7,1.8 0.7,1.8 0.7,1.9 0.7,1.8 0.7,1.8 0.7,1.9 0.7,1.8 0.7,1.8 -439.1,0.6"
           id="path221"
           inkscape:connector-curvature="0"
           style="stroke:#000000" />
      </g>
    </g>
    <g
       id="g223"
       style="color:#ffffff;fill:none;stroke:#000000;stroke-width:2;stroke-linecap:butt;stroke-linejoin:miter" />
    <g
       id="g225"
       style="color:#000000;fill:none;stroke:currentColor;stroke-width:2;stroke-linecap:butt;stroke-linejoin:miter" />
    <g
       id="g231"
       style="color:#000000;fill:none;stroke:#262626;stroke-width:1;stroke-linecap:butt;stroke-linejoin:miter" />
    <g
       id="g233"
       style="color:#000000;fill:none;stroke:currentColor;stroke-width:1;stroke-linecap:butt;stroke-linejoin:miter" />
  </g>
</svg>
